# xmcd
#
# Track frame offsets: 
#        150
#        14832
#        35891
#        48648
#        67934
#        87099
#        105730
#        124469
#        140572
#        157076
#        172752
#        188667
#        204346
#        222707
#        241758
#        253509
#        268831
#        288321
#        300678
#        316829
#        344074
#
# Disc length: 4799 seconds
#
# Revision: 0
# Processed by: cddbd v1.5.2PL0 Copyright (c) Steve Scherf et al.
# Submitted via: ExactAudioCopy v0.99pb4
#
DISCID=4412bd15
DTITLE=Various Artist - prevue promo 1127A-3
DYEAR=2003
DGENRE=pop
TTITLE0=Kylie Minogue - Slow
TTITLE1=Jewel - 2 Become 1
TTITLE2=Lumidee - Honestly(Main)
TTITLE3=Ivan Neville - Nothin Bout Love
TTITLE4=Brian O'Neal and The Busboys - Monster Mash(Movie "The Haunted
TTITLE4=Mansion" - Effects Tag)
TTITLE5=Jim Brickman feat. Kristy Starling - Sending You A Little Chri
TTITLE5=stmas(Christmas)
TTITLE6=Katrina Carlson with Benny Mardones - I Know You By Heart(Chri
TTITLE6=stmas - Christmas Version)
TTITLE7=Nickel Creek - This Side
TTITLE8=Joss Stone - Fell In Love With A Boy
TTITLE9=Warren Zevon - Keep Me In Your Heart
TTITLE10=Pat Green - Guy Like Me
TTITLE11=Johnny Cash with Joe Strummer - Redemption Songs
TTITLE12=Jonny Lang - Give Me Up Again
TTITLE13=Belle and Sebastian - Step Into My Office, Baby
TTITLE14=Adam Green - Jessica Simpson
TTITLE15=Foo Fighters - Darling Nikki(Lyric Content)
TTITLE16=Atomsphere - Trying To Find A Balance(Lyrics - "Clean")
TTITLE17=Rufio - White Lights
TTITLE18=Cheap Trick - My Obsession
TTITLE19=3 Doors Down - That Smell(Live Album Version - Applause Tag)
TTITLE20=Triumph The Insult Comic Dog - I Keed(LYRICS! - "Clean")
EXTD=
EXTT0=
EXTT1=
EXTT2=
EXTT3=
EXTT4=
EXTT5=
EXTT6=
EXTT7=
EXTT8=
EXTT9=
EXTT10=
EXTT11=
EXTT12=
EXTT13=
EXTT14=
EXTT15=
EXTT16=
EXTT17=
EXTT18=
EXTT19=
EXTT20=
PLAYORDER=
